<mxfile host="app.diagrams.net" modified="2021-10-28T16:50:34.081Z" agent="5.0 (X11; Linux x86_64) AppleWebKit/537.36 (KHTML, like Gecko) Chrome/94.0.4606.81 Safari/537.36" etag="RGMMxVwYACmSxLy4R0qf" version="15.5.4" type="github">
  <diagram id="-vFJ4cLBxipWU-TObULZ" name="Page-1">
    <mxGraphModel dx="1098" dy="591" grid="1" gridSize="10" guides="1" tooltips="1" connect="1" arrows="1" fold="1" page="1" pageScale="1" pageWidth="827" pageHeight="1169" math="0" shadow="0">
      <root>
        <mxCell id="0" />
        <mxCell id="1" parent="0" />
        <mxCell id="RgP9UIS1g2M-jDwmMlJo-3" value="" style="whiteSpace=wrap;html=1;aspect=fixed;fillColor=#dae8fc;strokeColor=#6c8ebf;strokeWidth=2;perimeterSpacing=1;glass=0;" vertex="1" parent="1">
          <mxGeometry x="234" y="110" width="360" height="360" as="geometry" />
        </mxCell>
        <mxCell id="RgP9UIS1g2M-jDwmMlJo-4" value="&lt;font style=&quot;font-size: 21px&quot;&gt;Raj kar&lt;/font&gt;" style="rounded=1;whiteSpace=wrap;html=1;" vertex="1" parent="1">
          <mxGeometry x="254" y="140" width="310" height="40" as="geometry" />
        </mxCell>
        <mxCell id="RgP9UIS1g2M-jDwmMlJo-5" value="&lt;font style=&quot;font-size: 18px&quot;&gt;32301219117&lt;/font&gt;" style="rounded=1;whiteSpace=wrap;html=1;" vertex="1" parent="1">
          <mxGeometry x="254" y="200" width="310" height="40" as="geometry" />
        </mxCell>
        <mxCell id="RgP9UIS1g2M-jDwmMlJo-6" value="&lt;span style=&quot;font-size: 17px&quot;&gt;#MyStrong@Passowrd@&lt;/span&gt;" style="rounded=1;whiteSpace=wrap;html=1;" vertex="1" parent="1">
          <mxGeometry x="254" y="320" width="310" height="40" as="geometry" />
        </mxCell>
        <mxCell id="RgP9UIS1g2M-jDwmMlJo-7" value="&lt;font style=&quot;font-size: 20px&quot;&gt;rajkar921@gmail.com&lt;/font&gt;" style="rounded=1;whiteSpace=wrap;html=1;" vertex="1" parent="1">
          <mxGeometry x="254" y="260" width="310" height="40" as="geometry" />
        </mxCell>
        <mxCell id="RgP9UIS1g2M-jDwmMlJo-8" value="length 8" style="rounded=1;whiteSpace=wrap;html=1;fillColor=#d5e8d4;strokeColor=#82b366;" vertex="1" parent="1">
          <mxGeometry x="254" y="370" width="50" height="20" as="geometry" />
        </mxCell>
        <mxCell id="RgP9UIS1g2M-jDwmMlJo-9" value="1 small" style="rounded=1;whiteSpace=wrap;html=1;fillColor=#d5e8d4;strokeColor=#82b366;" vertex="1" parent="1">
          <mxGeometry x="377.5" y="370" width="50" height="20" as="geometry" />
        </mxCell>
        <mxCell id="RgP9UIS1g2M-jDwmMlJo-10" value="1 capital" style="rounded=1;whiteSpace=wrap;html=1;fillColor=#d5e8d4;strokeColor=#82b366;" vertex="1" parent="1">
          <mxGeometry x="314" y="370" width="50" height="20" as="geometry" />
        </mxCell>
        <mxCell id="RgP9UIS1g2M-jDwmMlJo-12" value="1 digit" style="rounded=1;whiteSpace=wrap;html=1;fillColor=#f8cecc;strokeColor=#b85450;" vertex="1" parent="1">
          <mxGeometry x="444" y="370" width="50" height="20" as="geometry" />
        </mxCell>
        <mxCell id="RgP9UIS1g2M-jDwmMlJo-13" value="1 special" style="rounded=1;whiteSpace=wrap;html=1;fillColor=#d5e8d4;strokeColor=#82b366;" vertex="1" parent="1">
          <mxGeometry x="514" y="370" width="60" height="20" as="geometry" />
        </mxCell>
        <mxCell id="RgP9UIS1g2M-jDwmMlJo-18" value="Register Now" style="rounded=1;whiteSpace=wrap;html=1;fontSize=20;fillColor=#fff2cc;strokeColor=#d6b656;" vertex="1" parent="1">
          <mxGeometry x="304" y="410" width="210" height="40" as="geometry" />
        </mxCell>
        <mxCell id="RgP9UIS1g2M-jDwmMlJo-20" value="College Space Registration" style="text;html=1;strokeColor=none;fillColor=none;align=center;verticalAlign=middle;whiteSpace=wrap;rounded=0;glass=0;fontSize=20;" vertex="1" parent="1">
          <mxGeometry x="280" y="40" width="280" height="40" as="geometry" />
        </mxCell>
      </root>
    </mxGraphModel>
  </diagram>
</mxfile>
